<svg xmlns="http://www.w3.org/2000/svg" xmlns:xlink="http://www.w3.org/1999/xlink" version="1.1" viewBox="0 0 260 240">
  <style>    
    @media all and (max-width: 150px) {
      .smallTick {
        display: none;
      }
      .label {
        display: none;
      }
      #liveButton {
        display: none;
      }
    }

    .back {
      fill: #efefef;
    }
    .minback{
      fill: #fefefe;
    }
    .bigTick {
      fill: rgba(87,89,98,1);
    }

    .smallTick {
      fill: rgba(4, 255, 255, 0.5);
    }
    
    .minutesPointerFill {
      fill: #FDB462;
    }

    .pointer {
      cursor: pointer;
    }

    svg[data-mode="live"] .pointer {
      transition: transform 0.2s ease;
    }

    .hours > * {
      fill: #fff;
    }

    .minutes > * {
      fill: #2086CA;
    }

    .seconds > * {
      fill: #CBE5F7;
    }

    .label {
      width: 50px;
      text-anchor: middle;
      <!-- font-family: Arial; -->
      fill: #b4b4b4;
      font-weight: bold;
      font-size: 16px;
    }

    .label.shadow {
      fill: gray;
    }

    #liveButton {
      cursor: pointer;
    }
    #liveButton > rect {
      fill: url(#liveButtonGradient);
    }
    #liveButton:hover > rect {
      fill: url(#hoverLiveButtonGradient);
    }
    #liveButton:active > rect {
      fill: url(#activeLiveButtonGradient);
    }
    svg[data-mode="live"] #liveButton > rect {
      fill: #efefef;
      stroke: #2086CA;
      /* fill: url(#selectedLiveButtonGradient); */
    }

    #liveButton > text {
      text-anchor: middle;
      <!-- font-family: Arial; -->
      fill: #61a1f5;
      font-size: 16px;
    }
    text {
      pointer-events: none;
      -webkit-user-select: none;
      -moz-user-select: none;
      -ms-user-select: none;
    }

    hourCircle{
      fill: rgba(0,0,0,1);
    }
    polyborder{
      border-radius: 5px;
    }
  </style>

  <defs>

<!-- 原来的 -->
    <!-- <mask id="pointerHoursMask">
      <rect x="-5" y="-50" width="10" height="60" fill="white" />
      <circle cx="0" cy="-55" r="10" fill="white"/>
      <circle cx="0" cy="-55" r="5" fill="black"/>
    </mask> -->
    

    <mask id="pointerMinutesMask">
      <rect x="-3.75" y="-80" width="7.5" height="90" fill="#eeeef0" />     
      <circle cx="0" cy="-70" r="7.5" fill="#c00d0d" />
      <circle cx="0" cy="-70" r="5" fill="black" />
    </mask>
    
    <linearGradient id="liveButtonGradient" x1="0%" y1="0%" x2="0%" y2="100%">
      <stop offset="0%" style="stop-color:#BBBDBD; stop-opacity:0.85" />
      <stop offset="100%" style="stop-color:#9FA0A1; stop-opacity:0.85" />
    </linearGradient>
    <linearGradient id="hoverLiveButtonGradient" x1="0%" y1="0%" x2="0%" y2="100%">
      <stop offset="0%" style="stop-color:#BBBDBD; stop-opacity:0.85" />
      <stop offset="100%" style="stop-color:#9FA0A1; stop-opacity:0.85" />
    </linearGradient>
    <linearGradient id="activeLiveButtonGradient" x1="0%" y1="0%" x2="0%" y2="100%">
      <stop offset="0%" style="stop-color:#AAAAAA; stop-opacity:0.85" />
      <stop offset="100%" style="stop-color:#929496; stop-opacity:0.85" />
    </linearGradient>

    <linearGradient id="selectedLiveButtonGradient" x1="0%" y1="0%" x2="0%" y2="100%">
      <stop offset="0%" style="stop-color:#D85B5B; stop-opacity:0.85" />
      <stop offset="100%" style="stop-color:#D83C3C; stop-opacity:0.85" />
    </linearGradient>
  </defs>

  <g transform="translate(25 40)">

    <circle class="back" cx="100" cy="100" r="110" stroke-width="4" stroke="#f0eff2"></circle>

    <circle class="minback" cx="100" cy="100" r="102" stroke="#eeeef0" fill="#eeeef0"></circle>

    <g class="ticks" transform="translate(100 100)">
      <!--
        Big ticks: 12-3-6-9
       -->

      <g transform="rotate(0 0 0)">
        <rect class="bigTick" x="-1" y="-100" width="2" height="10" />
      </g>

      <g transform="rotate(90 0 0)">
        <rect class="bigTick" x="-1" y="-100" width="2" height="10" />
      </g>

      <g transform="rotate(180 0 0)">
        <rect class="bigTick" x="-1" y="-100" width="2" height="10" />
      </g>

      <g transform="rotate(270 0 0)">
        <rect class="bigTick" x="-1" y="-100" width="2" height="10" />
      </g>

      <g transform="translate(-95 0)">
        <text class="label" x="16" y="6">9</text>
      </g>
      <g transform="translate(95 0)">
        <text class="label" x="-16" y="6">3</text>
      </g>
      <g transform="translate(0 95)">
        <text class="label" x="0" y="-12">6</text>
      </g>
      <g transform="translate(0 -95)">
        <text class="label" x="0" y="26">12</text>
      </g>

      <!--
        Small ticks: 1-2-4-5-7-8-10-11
      -->

      <!-- <g transform="rotate(30 0 0)">
        <rect class="smallTick" x="-2.5" y="-100" width="5" height="10" />
      </g>
      <g transform="rotate(60 0 0)">
        <rect class="smallTick" x="-2.5" y="-100" width="5" height="10" />
      </g>
      <g transform="rotate(120 0 0)">
        <rect class="smallTick" x="-2.5" y="-100" width="5" height="10" />
      </g>
      <g transform="rotate(150 0 0)">
        <rect class="smallTick" x="-2.5" y="-100" width="5" height="10" />
      </g>
      <g transform="rotate(210 0 0)">
        <rect class="smallTick" x="-2.5" y="-100" width="5" height="10" />
      </g>
      <g transform="rotate(240 0 0)">
        <rect class="smallTick" x="-2.5" y="-100" width="5" height="10" />
      </g>
      <g transform="rotate(300 0 0)">
        <rect class="smallTick" x="-2.5" y="-100" width="5" height="10" />
      </g>
      <g transform="rotate(330 0 0)">
        <rect class="smallTick" x="-2.5" y="-100" width="5" height="10" />
      </g> -->
    </g>

    <g id="liveButton" transform="translate(210, -35)">
      <rect rx="2" ry="2" x="-22" y="-12" width="45" height="24" fill="#eeeef0" />
      <text alignment-baseline="middle">
        现在
      </text>
    </g>

    <!--
      Labels
    -->
    
    <!-- <g display="none" transform="translate(150, 100)">
      <g transform="translate(0, -6)">
        <text id="timeLabel" class="label" alignment-baseline="middle">
          10:09
        </text>
      </g>

      <g display="none" transform="translate(0, 6)">
        <text id="ampmLabel" class="label" x="0" y="0" style="font-size:12px;"  alignment-baseline="middle">
          AM
        </text>
      </g>
    </g>

    <g display="none" transform="translate(100, 50)">
      <text id="darkLabel" class="label" x="0" y="0" alignment-baseline="middle">
        夜晚
      </text>
    </g> -->


    <!--
      Pointers
    -->
    
    <g class="pointers" transform="translate(100 100)">
      <g>
        <g id="pointerHours" class="pointer hours"  mask="url(#pointerHoursMask)">          
          <!-- <rect x="-5" y="-50" width="10" height="60" /> -->
          <circle class="hourCircle" stroke-width="10" stroke="#8F9196" cx="0" cy="0" r="5"/>
          <polygon class="polyborder" points="-5,-5  5, -5  5, -60  -5, -60"
            style="fill:#8F9196;" />          
        </g>
      </g>

      <g display="none">
        <g id="pointerMinutes" class="pointer minutes" mask="url(#pointerMinutesMask)">
          <rect x="-3.75" y="-80" width="7.5" height="90"/>     
          <circle fill="red" cx="0" cy="-70" r="7.5"/>
        </g>
      </g>

      <g display="none">
        <g id="pointerSeconds" class="pointer seconds">
          <rect x="-1" y="-90" width="2" height="100"/>
          <rect x="-2" width="4" height="20"/>
          <circle r="6" />
        </g>
      </g>
    </g>

    

  </g>
</svg>