{
    "asset" : {
        "generator" : "Khronos glTF Blender I/O v1.8.19",
        "version" : "2.0"
    },
    "scene" : 0,
    "scenes" : [
        {
            "name" : "Scene",
            "nodes" : [
                0
            ]
        }
    ],
    "nodes" : [
        {
            "mesh" : 0,
            "name" : "\u8f7f\u8f6625"
        }
    ],
    "materials" : [
        {
            "doubleSided" : true,
            "name" : "Mat3d66-1537423-17-6288",
            "pbrMetallicRoughness" : {
                "baseColorTexture" : {
                    "index" : 0
                },
                "metallicFactor" : 0,
                "roughnessFactor" : 0.751968502998352
            }
        }
    ],
    "meshes" : [
        {
            "name" : "Obj3d66-1537423-44-237",
            "primitives" : [
                {
                    "attributes" : {
                        "POSITION" : 0,
                        "NORMAL" : 1,
                        "TEXCOORD_0" : 2
                    },
                    "indices" : 3,
                    "material" : 0
                }
            ]
        }
    ],
    "textures" : [
        {
            "sampler" : 0,
            "source" : 0
        }
    ],
    "images" : [
        {
            "bufferView" : 4,
            "mimeType" : "image/jpeg",
            "name" : "3d66Model-1537423-files-14"
        }
    ],
    "accessors" : [
        {
            "bufferView" : 0,
            "componentType" : 5126,
            "count" : 877,
            "max" : [
                1.1565330028533936,
                1.7438383102416992,
                2.5120038986206055
            ],
            "min" : [
                -1.1565330028533936,
                5.960464477539063e-08,
                -2.5120038986206055
            ],
            "type" : "VEC3"
        },
        {
            "bufferView" : 1,
            "componentType" : 5126,
            "count" : 877,
            "type" : "VEC3"
        },
        {
            "bufferView" : 2,
            "componentType" : 5126,
            "count" : 877,
            "type" : "VEC2"
        },
        {
            "bufferView" : 3,
            "componentType" : 5123,
            "count" : 2796,
            "type" : "SCALAR"
        }
    ],
    "bufferViews" : [
        {
            "buffer" : 0,
            "byteLength" : 10524,
            "byteOffset" : 0
        },
        {
            "buffer" : 0,
            "byteLength" : 10524,
            "byteOffset" : 10524
        },
        {
            "buffer" : 0,
            "byteLength" : 7016,
            "byteOffset" : 21048
        },
        {
            "buffer" : 0,
            "byteLength" : 5592,
            "byteOffset" : 28064
        },
        {
            "buffer" : 0,
            "byteLength" : 57819,
            "byteOffset" : 33656
        }
    ],
    "samplers" : [
        {
            "magFilter" : 9729,
            "minFilter" : 9987
        }
    ],
    "buffers" : [
        {
            "byteLength" : 91476,
            "uri" : "data:application/octet-stream;base64,"
        }
    ]
}
